<svg fill="rgb(255, 255, 255)" version="1.1" id="Capa_1" xmlns="http://www.w3.org/2000/svg" xmlns:xlink="http://www.w3.org/1999/xlink" viewBox="-49.54 -49.54 594.48 594.48" xml:space="preserve" stroke="#ffffff" transform="rotate(0)"><g id="SVGRepo_bgCarrier" stroke-width="0" transform="translate(0,0), scale(1)"><path transform="translate(-49.54, -49.54), scale(18.5775)" d="M16,31.884586803615093C19.011737024076773,31.994959115110376,21.98245556080938,30.869862184903724,24.398602198770234,29.06848011182481C26.723596068067494,27.335057888865215,28.07977137762651,24.70364035032157,29.212441696183788,22.033919944590032C30.31949237595501,19.424585399893257,32.29008707584411,16.305778243179528,30.84889274376721,13.865051533586815C29.271007606264188,11.192832864628368,24.679989712978642,12.55590236905881,22.38344623181866,10.468712353505705C20.53413048055905,8.787980678578073,21.628487840884233,5.152746146942691,19.622694338376657,3.662236121394278C17.56781204265946,2.1352480943319794,14.592078383161745,2.118233895654241,12.141027313913932,2.8575459677744934C9.696662296907462,3.5948413217615043,8.03359733990718,5.718847683305464,6.373507410992858,7.658596688536067C4.722723537552049,9.587471938355616,2.494318925186637,11.527724889786317,2.5485503289199993,14.065973514532871C2.602591222422715,16.59530549140294,5.749108435679709,17.906469220863563,6.6430266803654145,20.273186533768943C7.641232410596125,22.916012986437444,6.2152742473514095,26.26735622007987,7.987900187548178,28.46707065948588C9.847412342343436,30.774605286165254,13.038459496893985,31.776054063770413,16,31.884586803615093" fill="#ed333b" strokewidth="0"></path></g><g id="SVGRepo_tracerCarrier" stroke-linecap="round" stroke-linejoin="round" stroke="#ed333b" stroke-width="50.530596"> <g> <g> <g> <path d="M487.083,225.514l-75.08-75.08V63.704c0-15.682-12.708-28.391-28.413-28.391c-15.669,0-28.377,12.709-28.377,28.391 v29.941L299.31,37.74c-27.639-27.624-75.694-27.575-103.27,0.05L8.312,225.514c-11.082,11.104-11.082,29.071,0,40.158 c11.087,11.101,29.089,11.101,40.172,0l187.71-187.729c6.115-6.083,16.893-6.083,22.976-0.018l187.742,187.747 c5.567,5.551,12.825,8.312,20.081,8.312c7.271,0,14.541-2.764,20.091-8.312C498.17,254.586,498.17,236.619,487.083,225.514z"></path> <path d="M257.561,131.836c-5.454-5.451-14.285-5.451-19.723,0L72.712,296.913c-2.607,2.606-4.085,6.164-4.085,9.877v120.401 c0,28.253,22.908,51.16,51.16,51.16h81.754v-126.61h92.299v126.61h81.755c28.251,0,51.159-22.907,51.159-51.159V306.79 c0-3.713-1.465-7.271-4.085-9.877L257.561,131.836z"></path> </g> </g> </g> </g><g id="SVGRepo_iconCarrier"> <g> <g> <g> <path d="M487.083,225.514l-75.08-75.08V63.704c0-15.682-12.708-28.391-28.413-28.391c-15.669,0-28.377,12.709-28.377,28.391 v29.941L299.31,37.74c-27.639-27.624-75.694-27.575-103.27,0.05L8.312,225.514c-11.082,11.104-11.082,29.071,0,40.158 c11.087,11.101,29.089,11.101,40.172,0l187.71-187.729c6.115-6.083,16.893-6.083,22.976-0.018l187.742,187.747 c5.567,5.551,12.825,8.312,20.081,8.312c7.271,0,14.541-2.764,20.091-8.312C498.17,254.586,498.17,236.619,487.083,225.514z"></path> <path d="M257.561,131.836c-5.454-5.451-14.285-5.451-19.723,0L72.712,296.913c-2.607,2.606-4.085,6.164-4.085,9.877v120.401 c0,28.253,22.908,51.16,51.16,51.16h81.754v-126.61h92.299v126.61h81.755c28.251,0,51.159-22.907,51.159-51.159V306.79 c0-3.713-1.465-7.271-4.085-9.877L257.561,131.836z"></path> </g> </g> </g> </g></svg>